PathFileType	4	(X/Y/Z)	Patient4_TMGait_0pt2_03_right_17.trc.trc
DataRate	CameraRate	NumFrames	NumMarkers	Units	OrigDataRate	OrigDataStartFrame	OrigNumFrames
45.901639344262	45.901639344262	4	33	mm	45.901639344262	71	       141
Frame#	Time	Sacral			L.Shoulder			Chest			R.Shoulder			Neck			R.ASIS			L.ASIS			R.Thigh.Superior			R.Thigh.Lateral			R.Thigh.Inferior			R.Patella			L.Thigh.Superior			L.Thigh.Lateral			L.Thigh.Inferior			L.Patella			L.Shank.Superior			L.Shank.Lateral			L.Shank.Inferior			R.Shank.Superior			R.Shank.Lateral			R.Shank.Inferior			R.Heel			R.Midfoot.Superior			R.Midfoot.Lateral			R.Toe			L.Heel			L.Midfoot.Lateral			L.Midfoot.Superior			L.Toe			L.Elbow			L.Wrist			R.Elbow			R.Wrist			
		X1	Y1	Z1	X2	Y2	Z2	X3	Y3	Z3	X4	Y4	Z4	X5	Y5	Z5	X6	Y6	Z6	X7	Y7	Z7	X8	Y8	Z8	X9	Y9	Z9	X10	Y10	Z10	X11	Y11	Z11	X12	Y12	Z12	X13	Y13	Z13	X14	Y14	Z14	X15	Y15	Z15	X16	Y16	Z16	X17	Y17	Z17	X18	Y18	Z18	X19	Y19	Z19	X20	Y20	Z20	X21	Y21	Z21	X22	Y22	Z22	X23	Y23	Z23	X24	Y24	Z24	X25	Y25	Z25	X26	Y26	Z26	X27	Y27	Z27	X28	Y28	Z28	X29	Y29	Z29	X30	Y30	Z30	X31	Y31	Z31	X32	Y32	Z32	X33	Y33	Z33	

71	37.965000000000	772.635331251135	1004.334168365900	603.763521455097	904.748256917380	1434.897750697790	400.680499744489	1044.077618517011	1358.059163328980	526.636144791408	1012.248903491979	1429.908597063632	715.534376826552	924.350886947947	1489.480426846310	558.123386693902	1014.824933086838	930.196297033257	673.422993562069	952.428381603760	963.588797800996	407.852741995660	1020.436745499611	721.110595836123	630.985308653914	933.260504808626	616.117787948779	697.673936588357	987.696968927345	560.888883887439	605.163978738138	973.952984339467	470.549882710214	607.595554016005	1023.262910338575	766.907131325144	422.834160160423	952.164879864303	632.979382129178	343.231049830317	1062.421293479136	579.338436106055	397.336910678716	1078.710848660216	512.974127489473	390.913309092783	1063.136026711934	442.429559470557	373.647288002896	992.518856933915	318.622853668684	312.937873545521	1078.581935980952	212.740094590808	357.451303486401	929.553345555895	387.276111870680	613.499925530426	847.603194382889	293.623391572013	678.803987206920	862.006665763749	198.232533446156	606.475983663338	699.865098982186	46.706686858741	581.432078977207	874.316206571130	96.024124775106	610.825070784217	785.837092066005	37.556293783841	652.175057220740	993.623767574649	39.648237226222	634.019249625039	985.516082148995	42.434769064168	386.955861393883	1058.669114830922	40.773145528819	306.138428495857	1138.452928270187	108.888375005505	327.926114128156	1267.451325330024	65.171909808166	299.100378287937	721.817403850745	1134.446840638295	330.730281704404	656.105716023331	889.141488621737	401.468037052364	1226.479018575539	1172.495558812249	811.007734949589	1439.013440252797	1281.516432061879	722.118620699994	
72	37.986785714286	773.006732002833	1002.839456039477	601.119231250488	903.924428395932	1433.373543441107	396.841503443212	1043.429781425878	1357.208646462072	523.050976699731	1011.163060165515	1429.201642231863	711.780611106451	923.367586929400	1488.443954401579	554.307156920747	1015.448337907530	929.862650288098	671.515716885480	953.128649554093	961.739347176397	405.677481974754	1020.476520767069	720.353471612825	629.632270975935	932.431724117948	615.692660756942	696.304810637927	986.667594120430	560.007684474559	604.200206800852	972.188129821559	469.577103327649	606.738108482766	1024.322950409160	764.693630059426	420.831767138557	951.586781102270	630.533641842994	342.825876228375	1062.279145214803	576.960598200520	396.020942611743	1077.390398566590	510.324559833974	390.456538718570	1061.896109804738	439.749231559704	373.473762858941	990.621602945000	316.319758281277	313.499630157476	1075.837175925678	210.312758728836	358.561084402057	927.234733778388	386.545408742160	612.732255382069	844.640958033967	293.591588779427	678.305970885580	858.437996009595	197.925788167260	606.185082036810	695.524708221994	46.933156951296	581.403812163413	870.071068339612	96.085509909632	610.843590294591	781.474751442443	37.693141781878	652.167125442594	989.251925792846	39.572052218823	634.049507452040	981.493916088468	41.012584281916	388.280203384078	1054.594817988777	39.520210601030	307.356806778205	1134.650725169618	106.896224970566	329.693733730180	1263.412862640855	62.683653257379	300.482291601628	723.605368771994	1131.095232260121	327.168382814215	659.297122212266	885.388569283069	397.612433934699	1227.616386208538	1174.223500553506	806.622088024565	1435.809970950301	1289.782462663222	716.249696191564	
73	38.008571428571	773.510202344032	1001.568743157484	598.262670530756	903.390082569620	1432.000937711418	392.706224844129	1042.996479130528	1356.520633030446	519.259310821819	1010.198782054288	1428.708415917444	707.796927105456	922.567248181106	1487.591825711915	550.181997517680	1016.200998074065	929.651610217262	669.380497953645	953.965762248432	960.098619487092	403.282969056803	1020.622399519030	719.689510448120	628.066634646490	931.728484327010	615.392321110144	694.738595177062	985.771181084077	559.223311666382	603.050293571885	970.588214134312	468.701315369164	605.735307927997	1025.731477716134	762.861714548433	418.749369778028	951.602306865228	628.465386425360	342.260840822216	1062.647727989340	574.938654572682	394.682464632200	1076.788035118274	507.980506900540	389.884872695312	1061.089719734925	437.286863190148	373.206096648053	988.775653963712	314.434103151975	313.913425107901	1072.714706544454	207.980750017437	359.561441942978	925.011804086282	385.930987638342	611.861948224864	841.765651911577	293.739804200215	677.766425113188	854.931339618725	197.752944346668	605.882898842549	691.219774888057	47.367349908419	581.403719985475	865.870149304939	96.166937108820	610.865828060421	777.143099277980	37.929212122769	652.177894873419	984.895427594421	39.467403290673	634.082783643205	976.460246115239	39.931575974900	389.502076809969	1049.461766691153	38.482558998584	308.427033349786	1130.010886369769	104.899146097822	331.326788733599	1258.438483531779	59.837800402012	301.602992649361	726.175359956645	1127.719203834099	322.586492522381	663.869059228764	881.354034345874	392.228505045269	1228.136242649349	1175.500667720621	802.399464849235	1432.672705955093	1296.070776102900	710.669606766532	
74	38.030357142857	774.116858258333	1000.623446501014	595.177244708935	903.158417923103	1430.875614419865	388.345873726872	1042.800312415125	1356.051685416633	515.298209100361	1009.424860160729	1428.483952514177	703.625570239258	921.987107714148	1486.988864408705	545.817120268500	1017.029035392689	929.590487406351	666.983173196637	954.901371487207	958.773494173424	400.642552473907	1020.773862929443	719.161654667113	626.262742311872	931.061212746736	615.273528050880	692.980933580114	984.906220309391	558.585245156398	601.717627614782	969.054496004267	467.984506347099	604.610826453921	1027.355129475409	761.490639257804	416.556189344880	952.153628624036	626.873287978774	341.405073371029	1063.414103449329	573.351475926023	393.273702340222	1076.816159940621	506.054554803874	389.139725470226	1060.706876713633	435.178957787123	372.779754313697	987.175697576210	313.006054787842	314.035547543425	1069.520182186497	205.883659451952	360.348242562706	922.822468893587	385.494581181737	610.916764079526	838.920786923773	294.112317974511	677.194889934813	851.472621684156	197.757756329519	605.585197145745	686.960556231947	48.049068608883	581.432923453079	861.728846964803	96.276455851474	610.898655943302	772.849521541486	38.284510696601	652.207146801485	980.558987896535	39.332211557178	634.119201074827	970.955109625399	39.184257891781	390.509748367003	1043.841454276509	37.671797635577	309.273771528092	1125.013424071311	103.040774853085	332.708313442304	1253.067832817401	56.904482872364	302.439161595566	729.396995406598	1124.534826852512	317.073089865931	669.648693297805	877.279571244481	385.431038084211	1228.210609520617	1176.458466038331	798.342620597582	1429.887632016305	1300.568843254250	705.378290547538	
